<?xml version="1.0" encoding="utf-8"?>
<!-- Generator: Adobe Illustrator 23.0.1, SVG Export Plug-In . SVG Version: 6.00 Build 0)  -->
<svg version="1.1" id="Слой_1" xmlns="http://www.w3.org/2000/svg" xmlns:xlink="http://www.w3.org/1999/xlink" x="0px" y="0px"
	 viewBox="0 0 993.91 201.05" style="enable-background:new 0 0 993.91 201.05;" xml:space="preserve">
<style type="text/css">
	.st0{fill:#0072B0;}
	.st1{fill:#E30613;}
	.st2{fill:#FFFFFF;}
</style>
<g>
	<g>
		<path class="st1" d="M10.47,121.94c-0.74,5.23,0.5,9.4,3.81,12.71c3.3,3.3,7.42,4.51,12.58,3.71c5.53-0.85,11.07-4.01,16.47-9.4
			l85.62-85.62c8.56-8.57,18.18-14.72,28.57-18.32c10.49-3.62,20.99-4.44,31.2-2.43c4.34,0.85,8.43,2.34,12.34,4.23V0H125.2
			L19.78,105.42C14.4,110.8,11.27,116.36,10.47,121.94z"/>
		<path class="st0" d="M190.55,79.11c0.74-5.23-0.5-9.4-3.81-12.72c-3.3-3.3-7.42-4.51-12.58-3.71c-5.52,0.85-11.06,4.01-16.46,9.41
			l-85.62,85.63c-8.56,8.56-18.17,14.72-28.58,18.32c-10.48,3.63-20.96,4.41-31.14,2.33c-4.35-0.89-8.44-2.41-12.36-4.33v27.02
			h75.81L181.05,95.81C186.56,90.3,189.76,84.68,190.55,79.11z"/>
		<polygon class="st1" points="0,0 0,67.32 67.32,0 		"/>
		<polygon class="st0" points="201.05,201.05 201.05,133.68 133.68,201.05 		"/>
	</g>
	<g>
		<g>
			<path class="st1" d="M406.17,21.11v52.13l-11.17,11.16h-60.82L323,73.24V54h-14.89l-1.24,30.41h-22.34V9.93h22.34l1.24,29.17H323
				V21.11l11.17-11.17h60.82L406.17,21.11z M383.83,24.83h-38.48v44.69h38.48V24.83z"/>
			<path class="st1" d="M535.88,84.41h-22.86l-9-22.03l-17.17,22.03h-22.34l-17.17-22.03l-9.11,22.03h-22.75l16.86-41.17
				L416.1,22.35h23.58l24.83,31.75V9.93h22.34V54.1l24.83-31.75h23.59l-16.25,20.89L535.88,84.41z"/>
			<path class="st1" d="M618.42,22.35v62.06h-22.34v-24.2h-28.56v24.2h-22.34V22.35h22.34v22.96h28.56V22.35H618.42z"/>
			<path class="st1" d="M695.38,45.31l11.17,11.17v16.76l-11.17,11.16h-62.07V22.35h22.35v22.96H695.38z M684.21,60.21h-28.55v9.31
				h28.55V60.21z M739.45,22.35v62.06H717.1V22.35H739.45z"/>
			<path class="st1" d="M827.58,22.35v62.06h-22.34V46.97l-28.56,37.44h-22.34V22.35h22.34v37.44l28.56-37.44H827.58z M777.72,16.14
				l-7.45-7.45V0h14.89v6.21h11.58V0h14.89v8.7l-7.45,7.45H777.72z"/>
		</g>
		<g>
			<path class="st0" d="M372.97,114.17v74.47h-22.34v-48.51l-21.73,31.03l-21.72-31.03v48.51h-22.34v-74.47h22.34l21.72,31.03
				l21.73-31.03H372.97z"/>
			<path class="st0" d="M463.59,163.19h-53.37v10.55h31.02v-6.21h22.35v9.93l-11.17,11.16h-53.37l-11.17-11.16v-39.72l11.17-11.17
				h53.37l11.17,11.17V163.19z M441.24,150.78v-9.31h-31.02v9.31H441.24z"/>
			<path class="st0" d="M551.09,137.75v39.72l-11.17,11.16h-40.96v12.41h-22.35v-74.47h19.86l2.49,7.45l14.89-7.45h26.07
				L551.09,137.75z M528.74,141.47h-16.96l-12.82,6.42v25.86h29.79V141.47z"/>
			<path class="st0" d="M637.98,126.58v62.06h-22.34V151.2l-28.56,37.44h-22.34v-62.06h22.34v37.44l28.56-37.44H637.98z"/>
			<path class="st0" d="M740.07,173.75v27.31h-22.34v-12.41h-52.45v12.41h-22.34v-27.31h12.41l25.03-47.17h22.35l24.92,47.17H740.07
				z M703.77,173.75l-12.2-23.17l-12.31,23.17H703.77z"/>
			<path class="st0" d="M818.27,126.58v62.06h-22.35V151.2l-28.55,37.44h-22.35v-62.06h22.35v37.44l28.55-37.44H818.27z"/>
			<path class="st0" d="M906.4,137.75v50.88h-19.86l-2.48-7.45l-14.9,7.45h-26.69l-11.16-11.16v-22.03l52.75-6.63v-7.34h-30.41v5.59
				h-22.34v-9.31l11.16-11.17h52.75L906.4,137.75z M884.06,161.33l-30.41,3.83v8.58h17.58l12.83-6.42V161.33z"/>
			<path class="st0" d="M993.91,126.58v62.06h-22.34v-24.2h-28.56v24.2h-22.34v-62.06h22.34v22.96h28.56v-22.96H993.91z"/>
		</g>
	</g>
</g>
</svg>
